<?xml version="1.0" encoding="UTF-8" ?>
<!DOCTYPE svg PUBLIC "-//W3C//DTD SVG 1.1//EN" "http://www.w3.org/Graphics/SVG/1.1/DTD/svg11.dtd">
<svg width="294pt" height="254pt" viewBox="0 0 294 254" version="1.1" xmlns="http://www.w3.org/2000/svg">
<g id="#ffffffff">
</g>
<g id="#d73331ff">
<path fill="#d73331" opacity="1.00" d=" M 111.16 63.15 C 143.20 44.68 174.96 25.61 207.34 7.77 C 185.57 26.91 162.44 44.54 140.46 63.47 C 136.95 66.81 135.34 72.50 138.17 76.78 C 152.91 102.53 168.10 128.05 182.71 153.87 C 170.58 154.43 158.45 155.77 146.31 155.80 C 132.46 132.82 119.26 109.39 105.80 86.16 C 100.90 78.55 102.85 67.47 111.16 63.15 Z" />
<path fill="#d73331" opacity="1.00" d=" M 154.65 174.96 C 167.00 174.18 179.40 173.27 191.77 173.19 C 197.02 181.39 192.61 192.30 183.99 195.99 C 152.10 214.01 120.70 232.99 88.53 250.45 C 110.92 230.47 134.96 212.28 157.57 192.55 C 162.57 187.01 156.99 180.30 154.65 174.96 Z" />
</g>
<g id="#3c2e7cff">
<path fill="#3c2e7c" opacity="1.00" d=" M 149.57 88.20 C 183.93 88.27 218.93 91.78 251.37 103.66 C 262.01 108.15 274.88 113.87 278.14 126.05 C 280.28 137.69 268.96 145.36 260.04 150.06 C 227.61 166.19 190.58 168.31 155.02 169.73 C 115.25 170.65 73.83 167.85 37.39 150.53 C 25.57 145.77 10.57 131.65 21.88 118.90 C 43.55 98.51 75.44 94.34 103.82 90.85 C 106.02 93.50 107.81 96.53 109.01 99.76 C 90.74 104.91 70.27 107.56 55.54 120.54 C 45.80 129.97 57.36 141.66 66.70 145.28 C 106.34 163.20 151.57 162.37 193.87 156.80 C 211.29 153.45 231.44 149.76 242.74 134.70 C 249.14 126.08 239.42 117.51 232.15 113.87 C 208.14 101.71 180.70 98.22 154.13 97.19 C 152.01 94.55 150.60 91.40 149.57 88.20 Z" />
</g>
</svg>
